<svg width="93" height="92" viewBox="0 0 93 92" fill="none" xmlns="http://www.w3.org/2000/svg">
<circle cx="46.5" cy="77.5" r="12.5" fill="#FDC00F"/>
<circle cx="47" cy="35" r="24" fill="#7BC144"/>
<path d="M93 82.7538C93 82.7538 93 82.2915 93 82.7538C93 82.2915 93 82.2915 93 82.7538L82.8209 44.3819C82.3582 42.5327 80.9701 41.1457 79.1194 40.6834L80.0448 9.24623C80.0448 8.78392 80.0448 8.32161 79.5821 7.8593C79.1194 7.39699 78.6567 7.39698 78.194 7.39698H72.1791V1.84925C72.1791 1.38693 72.1791 0.924623 71.7164 0.462312C72.1791 0 72.1791 0 71.7164 0H55.5224C51.8209 0 48.5821 1.38693 46.7313 3.69849C44.4179 1.38693 41.1791 0 37.4776 0H21.2836C20.8209 0 20.3582 0 19.8955 0.462312C19.8955 0.924623 19.4328 1.38693 19.4328 1.84925V7.39698H13.8806C13.4179 7.39698 12.9552 7.39699 12.4925 7.8593C12.4925 8.32161 12.4925 8.32161 12.4925 8.78392L13.8806 40.2211C11.1045 40.6834 10.1791 42.995 10.1791 44.3819L0 82.2915C0 82.2915 0 82.2915 0 82.7538V84.603C0 88.7638 3.23881 92 8.32836 92H84.6716C89.7612 92 93 89.2261 93 84.603V82.7538ZM15.7313 61.4874C16.194 61.4874 16.194 61.4874 15.7313 61.4874H76.3433C76.3433 61.4874 76.3433 61.4874 76.806 61.4874L78.6567 70.2714H13.8806L15.7313 61.4874ZM55.0597 3.23618H69.8657L68.4776 45.3065H54.597C52.2836 45.3065 49.5075 46.2312 48.1194 47.6181V8.32161C48.1194 5.54774 51.3582 3.23618 55.0597 3.23618ZM37.4776 3.23618C41.6418 3.23618 44.8806 5.54774 44.8806 8.32161V48.0804C43.0298 46.2312 40.7164 45.3065 37.9403 45.3065H24.0597L23.1343 3.23618H37.4776ZM19.8955 10.6332L20.8209 47.6181V48.0804V54.0905C20.8209 55.0151 21.7463 55.4774 22.6716 55.4774H39.3284C40.2537 55.4774 41.1791 54.5528 41.1791 53.6281C41.1791 52.7035 40.2537 51.7789 39.3284 51.7789H24.0597V48.5427H37.9403C41.6418 48.5427 44.4179 51.7789 44.4179 54.5528C44.4179 55.4774 45.3433 56.402 46.2687 56.402C47.194 56.402 48.1194 55.4774 48.1194 54.5528C48.1194 51.7789 50.8955 48.5427 54.597 48.5427H68.4776V51.7789H53.209C52.2836 51.7789 51.3582 52.7035 51.3582 53.6281C51.3582 54.5528 52.2836 55.4774 53.209 55.4774H69.8657C70.791 55.4774 71.7164 54.5528 71.7164 54.0905V47.6181L73.1045 11.0955H77.2687L75.8806 41.608L75.4179 54.0905L76.3433 57.7889H16.6567L17.5821 54.5528L15.7313 10.6332H19.8955ZM12.9552 45.3065C12.9552 44.3819 13.4179 43.9196 13.4179 43.9196L13.8806 54.5528L10.1791 71.6583C10.1791 72.1206 10.1791 72.5829 10.6418 73.0452C11.1045 73.5075 11.5672 73.5075 12.0298 73.5075H80.5075C80.9701 73.5075 81.4328 73.5075 81.8955 73.0452C82.3582 72.5829 82.3582 72.1206 82.3582 71.6583L78.6567 54.5528L79.1194 44.3819C79.5821 44.8442 79.5821 44.8442 79.5821 45.3065L88.8358 81.3668H3.70149L12.9552 45.3065ZM89.7612 84.603C89.7612 88.3015 86.0597 88.7638 84.6716 88.7638H8.32836C6.9403 88.7638 3.23881 88.3015 3.23881 84.603V84.1407L89.7612 84.603Z" fill="black"/>
<path d="M28.6866 29.5879H38.4031C39.3284 29.5879 40.2538 28.6633 40.2538 27.7387C40.2538 26.814 39.3284 25.8894 38.4031 25.8894H28.6866C27.7613 26.3517 27.2986 26.814 27.2986 27.7387C27.2986 28.6633 27.7613 29.5879 28.6866 29.5879Z" fill="black"/>
<path d="M28.6866 22.1909H38.4031C39.3284 22.1909 40.2538 21.2663 40.2538 20.3416C40.2538 19.417 39.7911 18.9547 38.8657 18.9547H28.6866C27.7613 18.9547 27.2986 19.8793 27.2986 20.804C27.2986 21.7286 27.7613 22.1909 28.6866 22.1909Z" fill="black"/>
<path d="M28.6866 14.7941H38.4031C39.3284 14.7941 40.2538 13.8694 40.2538 12.9448C40.2538 12.0202 39.3284 11.0956 38.4031 11.0956H28.6866C27.7613 11.5579 27.2986 12.4825 27.2986 13.4071C27.2986 14.3318 27.7613 14.7941 28.6866 14.7941Z" fill="black"/>
<path d="M38.8657 33.7487H28.6866C27.7613 33.7487 27.2986 34.211 27.2986 35.1356C27.2986 36.0602 27.7613 36.9848 28.6866 36.9848H38.4031C39.3284 36.9848 40.2538 36.0602 40.2538 35.1356C40.2538 34.211 39.7911 33.7487 38.8657 33.7487Z" fill="black"/>
<path d="M54.1346 29.5879H63.851C64.7764 29.5879 65.7017 28.6633 65.7017 27.7387C65.7017 26.814 64.7764 25.8894 63.851 25.8894H54.1346C53.2092 25.8894 52.2838 26.814 52.2838 27.7387C52.2838 28.6633 53.2092 29.5879 54.1346 29.5879Z" fill="black"/>
<path d="M54.1346 22.1909H63.851C64.7764 22.1909 65.7017 21.2663 65.7017 20.3416C65.7017 19.417 64.7764 18.9547 63.851 18.9547H54.1346C53.2092 18.9547 52.2838 19.8793 52.2838 20.804C52.2838 21.7286 53.2092 22.1909 54.1346 22.1909Z" fill="black"/>
<path d="M54.1346 14.7941H63.851C64.7764 14.7941 65.7017 13.8694 65.7017 12.9448C65.7017 12.0202 64.7764 11.0956 63.851 11.0956H54.1346C53.2092 11.0956 52.2838 12.0202 52.2838 12.9448C52.2838 14.3318 53.2092 14.7941 54.1346 14.7941Z" fill="black"/>
<path d="M54.1346 36.985H63.851C64.7764 36.985 65.7017 36.0604 65.7017 35.1357C65.7017 34.2111 64.7764 33.2865 63.851 33.2865H54.1346C53.2092 33.2865 52.2838 34.2111 52.2838 35.1357C52.2838 36.0604 53.2092 36.985 54.1346 36.985Z" fill="black"/>
<path d="M46.2685 75.3567C44.4178 75.3567 42.567 76.2813 42.567 77.6683C42.567 79.0552 44.4178 79.9798 46.2685 79.9798C48.1193 79.9798 49.97 79.0552 49.97 77.6683C49.97 76.2813 48.1193 75.3567 46.2685 75.3567Z" fill="black"/>
</svg>
