<svg width="86" height="86" viewBox="0 0 86 86" fill="none" xmlns="http://www.w3.org/2000/svg">
<circle cx="24.5" cy="64.5" r="12.5" fill="#FDC00F"/>
<circle cx="48" cy="31" r="19" fill="#7BC144"/>
<path d="M63.0388 43.2097C63.0388 32.3024 53.8544 23.0731 42.165 23.0731C30.8932 23.0731 21.2913 31.8829 21.2913 43.2097C21.2913 54.117 30.4757 63.3463 42.165 63.3463C53.4369 63.3463 63.0388 54.117 63.0388 43.2097ZM24.2136 44.8878H30.0582C30.0582 46.9853 30.4757 49.0829 30.8932 50.7609C29.2233 51.1804 27.9709 51.6 26.7184 52.439C25.8835 50.3414 24.6311 47.8243 24.2136 44.8878ZM27.1359 33.9804C28.3883 34.8195 29.6408 35.239 31.3107 35.6585C30.8932 37.756 30.4757 39.8536 30.4757 41.9512H24.2136C24.6311 39.0146 25.466 36.4975 27.1359 33.9804ZM60.1165 41.9512H54.2718C54.2718 39.8536 53.8544 37.756 53.4369 35.6585C55.1068 35.239 56.3592 34.8195 57.6116 33.9804C58.8641 36.4975 59.699 39.0146 60.1165 41.9512ZM57.1942 52.439C55.9417 51.6 54.6893 51.1804 53.0194 50.7609C53.4369 49.0829 53.8544 46.9853 53.8544 44.8878H59.699C59.699 47.8243 58.4466 50.3414 57.1942 52.439ZM43.8349 59.9902V52.439C45.9223 52.439 47.5922 52.8585 49.2621 53.278C48.0097 56.6341 45.9223 59.1512 43.8349 59.9902ZM43.8349 49.0829V44.8878H50.932C50.932 46.5658 50.5146 48.2439 50.0971 49.9219C48.0097 49.5024 45.9223 49.5024 43.8349 49.0829ZM50.932 41.9512H43.8349V37.3365C45.9223 37.3365 48.4272 36.917 50.5146 36.4975C50.5146 38.1756 50.932 39.8536 50.932 41.9512ZM43.8349 34.4V26.4292C46.3398 27.2682 48.0097 29.7853 49.6796 33.5609C47.5922 33.9804 45.9223 33.9804 43.8349 34.4ZM40.9126 26.4292V34.4C38.8252 34.4 36.7379 33.9804 35.068 33.5609C36.3204 29.7853 38.4078 27.2682 40.9126 26.4292ZM40.9126 37.3365V41.9512H33.3981C33.3981 39.8536 33.8155 38.1756 34.233 36.4975C36.3204 36.917 38.4078 37.3365 40.9126 37.3365ZM33.3981 44.8878H40.9126V49.0829C38.4078 49.0829 36.3204 49.5024 34.233 49.9219C33.8155 48.2439 33.3981 46.5658 33.3981 44.8878ZM40.9126 52.439V59.9902C38.4078 59.1512 36.3204 56.6341 35.068 52.8585C36.7379 52.439 38.8252 52.439 40.9126 52.439ZM49.6796 58.3121C50.5146 57.0536 51.3495 55.3756 52.1845 53.278C53.4369 53.6975 54.2718 54.117 55.1068 54.5365C53.8544 56.2146 51.767 57.4731 49.6796 58.3121ZM55.1068 31.8829C54.2718 32.3024 53.0194 32.7219 52.1845 33.1414C51.3495 31.0439 50.5146 29.3658 49.6796 28.1073C51.767 28.9463 53.8544 30.2048 55.1068 31.8829ZM34.6505 27.6878C33.3981 29.3658 32.5631 31.0439 32.1456 32.7219C30.8932 32.7219 30.0582 32.3024 29.2233 31.8829C30.4757 30.2048 32.5631 28.9463 34.6505 27.6878ZM29.2233 54.5365C30.0582 54.117 30.8932 53.6975 32.1456 53.278C32.9806 54.9561 33.8155 56.6341 34.6505 58.3121C32.5631 57.4731 30.4757 56.2146 29.2233 54.5365Z" fill="black"/>
<path d="M79.3201 58.7318H79.7376C80.1551 58.7318 80.99 58.3123 80.99 57.8928C83.0774 53.2781 83.9124 48.244 83.9124 43.2098C83.9124 39.4342 83.4949 35.2391 82.2425 31.883C81.825 31.044 80.99 30.6245 80.5726 31.044C79.7376 31.4635 79.3201 32.3025 79.7376 32.722C80.99 36.0781 81.4075 39.8537 81.4075 43.2098C81.4075 47.8245 80.5726 52.4391 78.9027 57.0537C78.4852 57.4732 78.9027 58.3123 79.3201 58.7318Z" fill="black"/>
<path d="M30.8933 7.13168C34.6506 5.87314 38.4079 5.45363 42.1651 5.45363C48.4273 5.45363 54.6894 6.71217 60.1166 9.64875C60.5341 9.64875 60.5341 9.64875 60.9515 9.64875C61.369 9.64875 62.204 9.22924 62.204 8.80973C62.6214 7.9707 62.204 7.13168 61.369 6.71217C55.5244 3.77558 48.8447 2.09753 42.1651 2.09753C37.9904 2.09753 33.8156 2.51705 30.0583 3.77558C29.2234 4.61461 28.8059 5.45363 28.8059 6.29266C29.2234 7.13168 30.0583 7.55119 30.8933 7.13168Z" fill="black"/>
<path d="M3.75728 57.8926H4.17476C5.00971 57.4731 5.42718 56.634 5.00971 55.795C3.33981 51.5999 2.50485 47.4048 2.50485 42.7901C2.50485 38.595 3.33981 34.8194 4.59223 30.6243C5.42718 30.2048 5.00971 29.3657 4.17476 29.3657C3.33981 28.9462 2.50485 29.3657 2.08738 30.2048C0.417476 34.3999 0 38.595 0 43.2096C0 47.8243 0.834951 52.4389 2.50485 57.0536C2.92233 57.4731 3.33981 57.8926 3.75728 57.8926Z" fill="black"/>
<path d="M56.3593 78.0292C51.7671 79.7072 47.1749 80.5462 42.1652 80.5462C38.4079 80.5462 34.6506 80.1267 31.3108 79.2877C30.4758 78.8682 29.6409 79.7072 29.6409 80.1267C29.2234 80.9658 30.0584 81.8048 30.4758 81.8048C34.2331 82.6438 37.9904 83.4828 42.1652 83.4828C47.1749 83.4828 52.602 82.6438 57.1943 80.9657C58.0292 80.5462 58.4467 79.7072 58.0292 78.8682C58.0292 78.4487 57.1943 78.0292 56.3593 78.0292Z" fill="black"/>
<path d="M4.17476 26.0098C5.42719 27.2683 6.67962 28.1074 8.34952 28.5269C9.18447 28.9464 10.8544 29.3659 12.5243 29.3659C13.3592 29.3659 14.1942 29.3659 15.0291 29.3659C18.3689 29.3659 22.1262 28.5269 25.0486 27.2683C25.466 26.8488 25.466 26.0098 25.0486 25.1708C24.6311 24.7513 23.7961 24.3318 23.3786 24.7513C20.8738 26.0098 17.9515 26.4293 14.6117 26.4293C12.5243 26.4293 10.8544 26.0098 8.76699 25.5903H8.34952C7.51457 25.1708 6.67962 24.3318 6.26214 23.9122C5.00971 22.6537 4.59224 21.8147 4.17476 20.1366C3.33981 18.8781 3.33981 17.2001 3.33981 15.522C3.33981 13.844 3.75729 12.1659 4.17476 10.9074C4.59224 9.64883 5.00971 8.3903 6.26214 7.55127C7.09709 6.71225 8.34952 5.87322 9.60195 5.45371C10.8544 5.0342 12.1068 4.61469 13.7767 4.61469C15.0291 4.61469 16.699 5.0342 17.9515 5.45371C19.2039 5.87322 20.0388 6.71225 20.8738 7.55127C21.2913 8.3903 22.1262 9.22932 22.5437 10.9074C22.9612 12.1659 23.3786 13.844 23.3786 15.522C23.3786 16.361 23.3786 17.2001 22.9612 18.0391C22.9612 18.8781 22.5437 19.2976 22.1262 19.7171C22.1262 19.7171 21.7087 19.7171 21.2913 20.1366C20.8738 20.1366 20.8738 20.1366 20.4563 20.1366C20.0388 20.1366 19.6214 20.1366 19.2039 19.7171C18.7864 19.2976 18.3689 18.8781 18.3689 18.4586V13.4244C18.3689 12.5854 18.3689 11.7464 17.9515 11.3269C17.9515 10.4879 17.534 9.64883 17.1165 9.22932C16.699 8.80981 15.8641 8.3903 15.4466 8.3903C14.6117 7.97078 13.7767 7.97078 12.9418 7.97078C12.5243 7.97078 12.1068 7.97078 11.6893 7.97078C11.2719 7.97078 11.2718 8.3903 10.8544 8.3903C10.4369 8.3903 10.0194 8.80981 9.60195 8.80981L9.18447 9.22932L8.76699 9.64883V10.0683C8.76699 10.4879 8.767 10.9074 9.18447 10.9074C9.60195 11.3269 9.60195 11.3269 10.0194 11.3269C10.4369 11.3269 10.4369 11.3269 10.4369 11.3269C10.4369 11.3269 10.4369 11.3269 10.8544 11.3269C11.2718 11.3269 11.2719 10.9074 11.6893 10.9074C12.1068 10.9074 12.1068 10.9074 12.5243 10.4879C12.9418 10.4879 12.9418 10.4879 13.3592 10.4879C14.1942 10.4879 14.6117 10.9074 15.0291 11.3269C15.4466 11.7464 15.4466 12.5854 15.4466 13.4244V13.844C15.4466 13.844 15.0291 13.844 14.6117 13.4244C14.1942 13.4244 14.1942 13.4244 13.7767 13.4244C13.3592 13.4244 13.3592 13.4244 12.9418 13.4244C12.1068 13.4244 11.2718 13.4244 10.8544 13.844C10.4369 13.844 10.0194 14.2635 9.60195 14.683C9.18447 15.1025 8.767 15.522 8.34952 16.361C8.34952 16.7805 7.93204 17.6196 7.93204 18.4586C7.93204 19.2976 7.93204 19.7171 8.34952 20.5561C8.767 20.9757 8.767 21.3952 9.18447 21.8147C9.60195 22.2342 10.0194 22.6537 10.4369 22.6537C11.2719 23.0732 11.6893 23.0732 12.5243 23.0732C13.3592 23.0732 13.7767 23.0732 14.1942 22.6537C14.6117 22.2342 15.0291 22.2342 15.4466 21.8147C15.8641 21.8147 16.2816 21.3952 16.699 20.9757C16.699 21.3952 17.1165 21.8147 17.534 22.2342C17.9515 22.6537 18.3689 22.6537 18.7864 23.0732C19.2039 23.4927 19.6214 23.4927 20.4563 23.4927C21.2913 23.4927 22.1262 23.4927 22.5437 23.0732C23.3786 22.6537 23.7961 22.2342 24.2136 21.8147C25.0486 20.5561 25.466 19.7171 25.466 18.8781C25.8835 17.6196 26.301 16.7805 26.301 15.1025C26.301 13.0049 25.8835 10.9074 25.466 9.22932C25.0485 7.55127 23.7961 6.29273 22.9612 5.0342C21.2913 4.19517 20.0388 3.35615 18.7864 2.51713C17.1165 2.09761 15.4466 1.6781 13.3592 1.6781C11.2719 1.6781 9.60195 2.09761 7.93204 2.51713C6.67962 3.35615 5.00971 4.19517 4.17476 5.45371C2.92233 6.71225 2.08738 7.97078 1.66991 9.64883C0.834956 11.3269 0.41748 13.4244 0.41748 15.522C0.41748 17.6196 0.834956 19.7171 1.25243 21.3952C2.08738 23.0732 2.92233 24.7513 4.17476 26.0098ZM15.4466 18.8781C15.4466 19.2976 15.0291 19.2976 14.6117 19.7171C14.1942 19.7171 14.1942 20.1366 13.7767 20.1366C13.3592 20.1366 12.9418 20.1366 12.5243 20.1366C11.6893 20.1366 11.2718 20.1366 10.8544 19.7171C11.2718 19.2976 10.8544 18.8781 10.8544 18.4586C10.8544 17.6196 11.2719 17.2001 11.6893 16.7805C12.1068 16.361 12.5243 15.9415 13.3592 15.9415C13.7767 15.9415 13.7767 15.9415 14.1942 15.9415C14.6117 15.9415 14.6117 15.9415 15.0291 15.9415C15.4466 15.9415 15.4466 15.9415 15.8641 16.361V18.8781H15.4466Z" fill="black"/>
<path d="M20.0388 69.6391C20.8738 67.9611 21.2913 66.283 21.2913 64.605C21.2913 59.9903 17.9515 56.2147 13.3592 56.2147C9.18447 56.2147 5.42718 59.9903 5.42718 64.605C5.42718 66.283 5.84466 67.9611 6.67961 69.6391C2.92233 71.7367 0.834951 74.2538 0 80.5464C0 84.322 9.18447 85.1611 13.3592 85.1611H13.7767C18.3689 85.1611 26.7184 84.322 26.301 80.5464C26.301 80.5464 26.301 80.5464 26.301 80.1269C25.8835 75.0928 23.7961 71.7367 20.0388 69.6391ZM13.3592 59.5708C15.8641 59.5708 18.3689 62.0879 18.3689 65.0245C18.3689 68.3806 15.8641 71.7367 13.3592 71.7367C10.8544 71.7367 8.34951 68.3806 8.34951 65.0245C8.76699 62.0879 10.8544 59.5708 13.3592 59.5708ZM13.7767 82.2245C7.51456 82.2245 3.75728 81.3855 2.92233 80.5464C3.75728 75.0928 5.42718 73.8342 8.34951 72.1562C9.60194 73.4147 11.2718 74.2538 13.3592 74.2538C15.4466 74.2538 17.1165 73.4147 18.3689 72.1562C20.8738 73.4147 22.5437 75.5123 23.7961 80.5464C22.9612 81.3855 19.6214 82.2245 13.7767 82.2245Z" fill="black"/>
<path d="M85.9999 24.3317C85.165 18.4585 83.0776 15.522 79.3203 13.4244C80.1553 11.7463 80.5727 10.0683 80.5727 8.39024C80.5727 3.77561 77.2329 0 72.6407 0C68.466 0 64.7087 3.77561 64.7087 8.39024C64.7087 10.0683 65.1262 11.7463 65.9611 13.4244C62.2038 15.522 60.1164 18.039 59.2815 24.3317C59.2815 28.1073 68.466 28.9463 72.6407 28.9463H73.0582C78.0679 28.9463 85.9999 28.1073 85.9999 24.3317ZM72.6407 2.93659C75.1456 2.93659 77.6504 5.45366 77.6504 8.39024C77.6504 11.7463 75.1456 15.1024 72.6407 15.1024C70.1359 15.1024 67.631 11.7463 67.631 8.39024C67.631 5.45366 70.1359 2.93659 72.6407 2.93659ZM73.0582 26.0098C66.7961 26.0098 63.0388 25.1707 62.2038 24.3317C63.0388 18.8781 64.7087 17.6195 67.631 15.9415C68.8834 17.2 70.5533 18.039 72.6407 18.039C74.7281 18.039 76.398 17.2 77.6504 15.9415C80.1553 17.2 81.8252 19.2976 83.0776 24.3317C82.2426 25.1707 78.9028 26.0098 73.0582 26.0098Z" fill="black"/>
<path d="M77.6505 71.3171L70.5534 66.7025C70.136 66.2829 69.7185 66.2829 68.8835 66.7025C68.4661 67.122 68.0486 67.5415 68.0486 67.961V77.6098C68.0486 78.0293 68.4661 78.4488 68.8835 78.8683C69.301 78.8683 69.301 78.8683 69.7185 78.8683C70.136 78.8683 70.136 78.8683 70.5534 78.4488L77.6505 73.8342C78.068 73.4146 78.4855 72.9951 78.4855 72.5756C78.4855 72.1561 78.068 71.7366 77.6505 71.3171ZM70.9709 74.6732V70.8976L73.8932 72.9951L70.9709 74.6732Z" fill="black"/>
<path d="M71.8058 59.9902C64.7087 59.9902 58.864 65.8634 58.864 72.9951C58.864 80.1268 64.7087 86 71.8058 86C78.9029 86 84.7475 80.1268 84.7475 72.9951C85.165 65.8634 79.3203 59.9902 71.8058 59.9902ZM71.8058 83.0634C66.3786 83.0634 61.7863 78.4488 61.7863 72.9951C61.7863 67.5415 66.3786 62.9268 71.8058 62.9268C77.233 62.9268 81.8252 67.5415 81.8252 72.9951C81.8252 78.4488 77.6504 83.0634 71.8058 83.0634Z" fill="black"/>
</svg>
