<svg width="118" height="92" viewBox="0 0 118 92" fill="none" xmlns="http://www.w3.org/2000/svg">
<g clip-path="url(#clip0_35_285)">
<circle cx="59" cy="37" r="24" fill="#7BC144"/>
<circle cx="90.5" cy="69.5" r="12.5" fill="#FDC00F"/>
<path d="M116.273 68.5714H107.639V8.57143C107.639 4 103.61 0 99.0049 0H19.5707C14.9659 0 10.9366 4 10.9366 8.57143V68.5714H2.30244C1.15122 68.5714 0 69.7143 0 70.8571V75.4286C0 81.1429 4.60488 85.7143 10.361 85.7143V89.7143C10.361 90.8571 11.5122 92 12.6634 92H31.6585C32.8098 92 33.961 90.8571 33.961 89.7143V85.7143H84.039V89.7143C84.039 90.8571 85.1902 92 86.3415 92H105.337C106.488 92 107.639 90.8571 107.639 89.7143V85.7143C113.395 85.7143 118 81.1429 118 75.4286V70.8571C118 69.7143 117.424 68.5714 116.273 68.5714ZM14.9659 8.57143C14.9659 6.28571 16.6927 4 19.5707 4H99.0049C101.307 4 103.61 5.71429 103.61 8.57143V68.5714H76.5561H42.0195H14.9659V8.57143ZM44.322 73.1429H74.2537V73.7143C74.2537 74.2857 73.678 74.8571 73.1024 74.8571H45.4732C44.8976 74.8571 44.322 74.2857 44.322 73.7143V73.1429ZM29.9317 88H14.9659V85.7143H29.9317V88ZM103.61 88H88.6439V85.7143H103.61V88ZM113.971 75.4286C113.971 78.8571 111.093 81.7143 107.639 81.7143H10.361C6.90732 81.7143 4.02927 78.8571 4.02927 75.4286V73.1429H40.2927V73.7143C40.2927 76.5714 42.5951 78.8571 45.4732 78.8571H73.1024C75.9805 78.8571 78.2829 76.5714 78.2829 73.7143V73.1429H114.546V75.4286H113.971Z" fill="#252525"/>
<path d="M97.8537 62.8571V11.4285C97.8537 10.2857 96.7025 9.14282 95.5512 9.14282H22.4488C21.2976 9.71425 20.1464 10.2857 20.1464 11.4285V62.8571C20.1464 64 21.2976 65.1428 22.4488 65.1428H96.1269C96.7025 64.5714 97.8537 64 97.8537 62.8571ZM93.8244 60.5714H24.7512V13.7143H93.8244V60.5714Z" fill="#252525"/>
<path d="M32.2344 32L43.7466 37.1428V50.8571C43.7466 52 44.3222 52.5714 45.4734 52.5714C50.0783 53.7143 54.6832 54.8571 59.8637 54.8571C64.4685 54.8571 69.0734 54.2857 74.2539 52.5714C74.2539 52.5714 74.8295 51.4285 74.8295 50.8571V37.1428L82.8881 33.7143V48.5714L78.8588 54.8571C78.2832 55.4285 78.2832 56 78.8588 57.1428C79.4344 57.7143 80.01 58.2857 80.5856 58.2857H88.6442C89.2198 58.2857 89.7954 57.7143 90.371 57.1428C90.9466 56.5714 90.9466 56 90.371 54.8571L86.3417 48.5714V31.4285C86.9173 30.8571 86.9173 30.8571 86.9173 30.2857C87.4929 29.7143 86.9173 28.5714 86.3417 28.5714L59.8637 17.1428C59.2881 17.1428 58.7125 17.1428 58.1368 17.1428L32.2344 28.5714C31.0832 28.5714 30.5076 29.7143 30.5076 30.2857C30.5076 31.4285 31.0832 32 32.2344 32ZM70.8003 49.1428C63.3173 51.4285 55.2588 51.4285 47.7759 49.1428V38.8571L58.7124 43.4285H59.2881H59.8637L70.8003 38.8571V49.1428ZM84.6149 53.7142L85.1905 53.1428L85.7661 53.7142H84.6149ZM59.2881 21.1428L80.5856 30.2857L72.5271 33.7143C71.9515 33.7143 71.9515 33.7143 71.3759 34.2857L59.2881 39.4285L46.6246 34.2857C46.6246 34.2857 46.049 33.7143 45.4734 33.7143L37.9905 30.2857L59.2881 21.1428Z" fill="#252525"/>
</g>
<defs>
<clipPath id="clip0_35_285">
<rect width="118" height="92" fill="white"/>
</clipPath>
</defs>
</svg>
