<svg width="206" height="153" viewBox="0 0 206 153" fill="none" xmlns="http://www.w3.org/2000/svg">
<g clip-path="url(#clip0_35_1353)">
<path d="M95.1196 42.9843C95.1196 42.9843 103.03 35.5833 101.883 33.7961C100.445 31.5816 90.9214 37.7783 90.9214 37.7783L95.1196 42.9843Z" fill="white"/>
<path d="M73.2542 21.2862C73.2542 21.2862 77.4135 11.2821 75.6254 10.136C73.3903 8.7179 67.2874 18.2752 67.2874 18.2752L73.2542 21.2862Z" fill="white"/>
<path d="M7.23014 44.4608C7.23014 44.4608 -0.971846 37.3899 0.116568 35.5639C1.45765 33.2912 11.2339 39.0994 11.2339 39.0994L7.23014 44.4608Z" fill="white"/>
<path d="M28.1822 21.8885C28.1822 21.8885 23.6147 12.0592 25.3639 10.8354C27.5213 9.32022 34.0324 18.625 34.0324 18.625L28.1822 21.8885Z" fill="white"/>
<path d="M97.6268 44.1111C92.729 27.3858 77.3551 34.3984 77.3551 34.3984C77.3551 34.3984 81.1451 18.2947 69.0171 15.9442C59.2602 14.06 52.3216 20.8783 51.0388 23.0539C49.8532 21.0726 41.3014 13.8657 31.6223 17.3234C19.7663 21.5776 24.9752 35.02 24.9752 35.02C24.9752 35.02 9.38752 28.5513 5.05329 45.4321C1.57425 58.991 21.5156 60.5839 22.3902 66.6641C23.2648 72.7248 15.8986 152 15.8986 152H90.5C90.5 152 80.3677 72.0061 81.0285 65.9259C81.6893 59.8263 101.553 57.5535 97.6268 44.1111Z" fill="#FDC00F"/>
<path d="M51.6996 42.4406C40.7183 42.4406 30.6116 50.8129 36.3841 56.5823C42.1566 62.3516 45.5773 54.8534 51.9912 54.8534C58.0552 54.8534 61.2427 60.9142 66.4321 57.4564C71.6215 53.9987 64.1192 42.4406 51.6996 42.4406Z" fill="white"/>
<path d="M18.3086 42.5183C15.3544 40.6923 12.6916 41.1002 11.4866 43.1982C10.0095 45.7817 12.2057 48.2294 15.0822 49.7834C17.9588 51.3374 20.7964 51.0461 21.7877 49.2589C22.7789 47.4523 21.2435 44.3443 18.3086 42.5183Z" fill="white"/>
<path d="M40.66 33.3493C42.3121 32.1061 42.1761 28.6484 40.2325 25.7734C38.2889 22.8984 35.6844 22.1797 33.7214 23.6172C31.3113 25.3849 32.322 28.5124 34.3045 31.096C36.3064 33.699 39.0274 34.5926 40.66 33.3493Z" fill="white"/>
<path d="M89.697 42.4794C88.2782 40.498 85.596 40.362 82.8361 42.4794C80.0762 44.5967 78.8712 47.8408 80.0374 49.5308C81.2035 51.2208 84.0606 51.2208 86.7622 49.3948C89.4832 47.5688 91.4268 44.9075 89.697 42.4794Z" fill="white"/>
<path d="M66.4905 23.1316C64.3914 21.9078 61.8842 22.8791 60.2321 25.9288C58.5801 28.9786 58.7939 32.4364 60.5625 33.5048C62.3118 34.5732 64.9356 33.4076 66.646 30.6298C68.3758 27.852 69.0755 24.6468 66.4905 23.1316Z" fill="white"/>
<g opacity="0.3">
<path opacity="0.3" d="M27.8129 71.5398C27.6962 73.5795 27.5796 75.6191 27.4241 77.6588C27.3075 79.2323 27.2881 81.0194 26.8022 82.5152C26.5301 83.331 27.0937 84.2829 27.7157 84.4966C28.4737 84.7491 29.0762 84.1858 29.3289 83.3699C29.8731 81.7187 29.8925 79.6985 30.0286 77.9502C30.2035 75.8134 30.3201 73.6766 30.4367 71.5398C30.5728 69.4613 27.9295 69.4807 27.8129 71.5398Z" fill="white"/>
</g>
<g opacity="0.3">
<path opacity="0.3" d="M33.2551 80.3589C33.4689 82.3403 33.6827 84.3023 33.8576 86.2837C33.9742 87.76 34.188 89.9939 34.0131 91.1206C33.6827 93.1603 36.2288 94.015 36.5592 91.9753C36.8508 90.2076 36.6758 88.3622 36.5398 86.5945C36.3843 84.5159 36.1316 82.4374 35.9178 80.3589C35.8207 79.4848 35.3931 78.7466 34.5962 78.7466C33.9354 78.7466 33.1579 79.4848 33.2551 80.3589Z" fill="white"/>
</g>
<g opacity="0.3">
<path opacity="0.3" d="M42.2734 75.2113C42.5261 76.5128 42.8759 77.7754 43.2063 79.0381C43.3813 79.718 43.5562 80.3784 43.7117 81.0583C43.77 81.3303 43.8477 81.6022 43.8866 81.8936C43.906 82.0102 43.9255 82.1267 43.9449 82.2433C44.0226 82.7289 43.9449 81.9519 43.9449 82.321C44.0226 84.3995 46.6465 84.3995 46.5882 82.321C46.5493 81.0972 46.1606 79.8734 45.8691 78.7078C45.4998 77.2704 45.0722 75.8329 44.7806 74.3565C44.4308 72.3169 41.8847 73.1716 42.2734 75.2113Z" fill="white"/>
</g>
<g opacity="0.3">
<path opacity="0.3" d="M57.1613 72.2003C57.0058 76.6488 57.4917 81.0778 57.5111 85.5456C57.5111 87.6242 60.1544 87.6242 60.1544 85.5456C60.135 81.0972 59.6491 76.6682 59.8045 72.2003C59.8823 70.1024 57.239 70.1218 57.1613 72.2003Z" fill="white"/>
</g>
<g opacity="0.3">
<path opacity="0.3" d="M51.3692 90.4796C51.5442 93.5682 51.3692 96.6958 51.9523 99.7261C52.341 101.746 54.8872 100.892 54.4984 98.8714C53.9737 96.1324 54.1875 93.2574 54.0125 90.4796C53.8959 88.4205 51.2526 88.4011 51.3692 90.4796Z" fill="white"/>
</g>
<g opacity="0.3">
<path opacity="0.3" d="M64.0221 94.52C64.7023 96.4626 64.8578 98.7159 64.7218 100.794C64.5857 102.873 67.229 102.854 67.365 100.794C67.54 98.0943 67.1707 95.3748 66.3155 92.8883C66.0434 92.0724 65.0716 91.917 64.508 92.3055C63.8277 92.7912 63.75 93.7042 64.0221 94.52Z" fill="white"/>
</g>
<g opacity="0.3">
<path opacity="0.3" d="M68.298 73.055C68.7062 75.8134 70.2999 78.1833 70.3582 81.0194C70.3971 83.0979 73.0404 83.0979 73.0016 81.0194C72.9238 77.8142 71.2912 75.2695 70.8441 72.2003C70.5332 70.1412 68.0065 71.0153 68.298 73.055Z" fill="white"/>
</g>
<g opacity="0.3">
<path opacity="0.3" d="M75.5087 98.4247C76.4028 102.29 76.5777 106.331 77.2579 110.255C77.6078 112.294 80.1539 111.42 79.804 109.4C79.1044 105.476 78.9489 101.436 78.0548 97.5699C77.5884 95.5691 75.0422 96.4238 75.5087 98.4247Z" fill="white"/>
</g>
<g opacity="0.3">
<path opacity="0.3" d="M63.4974 114.995C63.6918 118.083 64.0028 121.152 64.0222 124.241C64.0416 126.32 66.6655 126.32 66.6655 124.241C66.6461 121.152 66.3156 118.083 66.1407 114.995C66.0047 112.936 63.3808 112.916 63.4974 114.995Z" fill="white"/>
</g>
<g opacity="0.3">
<path opacity="0.3" d="M41.1655 96.7151C40.9906 99.4346 40.8157 102.154 40.8157 104.893C40.8157 106.972 43.4395 106.972 43.459 104.893C43.459 102.154 43.6339 99.4346 43.8088 96.7151C43.9449 94.6365 41.3016 94.656 41.1655 96.7151Z" fill="white"/>
</g>
<g opacity="0.3">
<path opacity="0.3" d="M25.9276 92.6357C25.5389 95.4718 24.7226 98.1914 24.3533 101.027C24.0812 103.067 26.6273 103.941 26.8994 101.882C27.2882 99.0461 28.1045 96.3265 28.4738 93.4904C28.7459 91.4507 26.1997 90.5766 25.9276 92.6357Z" fill="white"/>
</g>
<g opacity="0.3">
<path opacity="0.3" d="M31.3309 105.962C31.5058 109.264 31.6807 112.566 32.0306 115.849C32.1278 116.723 32.5554 117.462 33.3522 117.462C33.9936 117.462 34.7711 116.723 34.6739 115.849C34.324 112.566 34.1491 109.264 33.9742 105.962C33.8576 103.903 31.2143 103.883 31.3309 105.962Z" fill="white"/>
</g>
<g opacity="0.3">
<path opacity="0.3" d="M26.2192 124.455C26.3747 128.379 25.986 132.264 26.9772 136.071C27.4825 138.053 30.0286 137.198 29.5233 135.216C28.6098 131.7 29.018 128.087 28.8625 124.455C28.7848 122.396 26.1415 122.376 26.2192 124.455Z" fill="white"/>
</g>
<g opacity="0.3">
<path opacity="0.3" d="M39.4161 118.86C39.455 122.26 40.1158 125.562 41.0487 128.748C41.6124 130.69 44.1585 129.855 43.5949 127.893C42.7591 124.96 42.0789 121.968 42.0594 118.86C42.04 116.782 39.3967 116.782 39.4161 118.86Z" fill="white"/>
</g>
<g opacity="0.3">
<path opacity="0.3" d="M49.4841 108.759C49.9894 111.964 50.3004 115.189 50.4948 118.433C50.6114 120.492 53.2547 120.511 53.1381 118.433C52.9437 114.897 52.5939 111.362 52.0302 107.885C51.6998 105.865 49.1537 106.719 49.4841 108.759Z" fill="white"/>
</g>
<g opacity="0.3">
<path opacity="0.3" d="M57.0447 124.027C57.861 126.883 57.8998 130.651 57.0447 133.488C56.4616 135.45 59.0077 136.285 59.5908 134.342C60.582 131.021 60.5237 126.494 59.5908 123.153C59.0271 121.211 56.481 122.065 57.0447 124.027Z" fill="white"/>
</g>
<g opacity="0.3">
<path opacity="0.3" d="M47.8514 133.06C47.8709 135.799 48.2013 138.635 47.3655 141.238C47.1129 142.054 47.6376 143.006 48.279 143.22C49.0176 143.472 49.6395 142.909 49.8922 142.093C50.8057 139.218 50.4753 136.071 50.4753 133.06C50.4753 130.982 47.8514 130.982 47.8514 133.06Z" fill="white"/>
</g>
<g opacity="0.3">
<path opacity="0.3" d="M35.7234 137.373C35.9178 139.781 36.5397 142.074 36.773 144.463C36.8701 145.337 37.2977 146.075 38.0946 146.075C38.7554 146.075 39.494 145.337 39.4163 144.463C39.183 142.074 38.5611 139.762 38.3667 137.373C38.289 136.498 37.8225 135.76 37.0451 135.76C36.3843 135.76 35.6457 136.498 35.7234 137.373Z" fill="white"/>
</g>
<g opacity="0.3">
<path opacity="0.3" d="M25.6945 142.52C25.6945 144.288 25.6167 146.153 25.9083 147.901C26.2775 149.941 28.8042 149.067 28.4544 147.046C28.3961 146.716 28.3572 145.823 28.3572 145.24C28.3378 144.327 28.3378 143.433 28.3378 142.52C28.3378 140.442 25.6945 140.442 25.6945 142.52Z" fill="white"/>
</g>
<g opacity="0.3">
<path opacity="0.3" d="M60.3487 139.257C61.1651 140.927 61.4955 142.851 61.9814 144.677C62.5061 146.639 65.0522 145.803 64.5275 143.822C63.9638 141.724 63.5751 139.548 62.6422 137.625C61.7481 135.838 59.4741 137.47 60.3487 139.257Z" fill="white"/>
</g>
<g opacity="0.3">
<path opacity="0.3" d="M71.2717 129.253C71.3884 129.408 71.1163 128.942 71.2912 129.33C71.3495 129.486 71.3495 129.466 71.2912 129.292C71.33 129.428 71.3689 129.564 71.4078 129.719C71.5438 130.243 71.641 130.787 71.7382 131.331C71.952 132.652 72.0686 133.993 72.1464 135.333C72.2241 136.751 72.263 138.169 72.2435 139.587C72.2241 140.675 72.263 141.219 71.9909 142.112C71.3884 144.074 73.9539 144.91 74.537 142.967C74.848 141.918 74.8674 140.694 74.8868 139.587C74.9257 138.014 74.8674 136.421 74.7702 134.847C74.673 133.254 74.4981 131.661 74.226 130.088C74.0317 129 73.7596 127.835 73.1376 126.98C71.9909 125.445 70.125 127.738 71.2717 129.253Z" fill="white"/>
</g>
<g opacity="0.3">
<path opacity="0.3" d="M77.7829 141.666C77.9384 142.87 78.0744 144.094 78.0938 145.318C78.1133 147.396 80.7566 147.396 80.7371 145.318C80.7177 143.802 80.5428 142.287 80.329 140.811C80.2124 139.937 79.3377 139.471 78.7158 139.684C77.9578 139.937 77.6663 140.792 77.7829 141.666Z" fill="white"/>
</g>
<g opacity="0.3">
<path opacity="0.3" d="M72.1465 114.412C73.1766 115.538 73.5653 117.364 74.2261 118.821C75.0425 120.647 77.3359 119.016 76.5002 117.19C75.7227 115.461 75.2368 113.479 74.0123 112.139C72.749 110.76 70.8831 113.033 72.1465 114.412Z" fill="white"/>
</g>
<g opacity="0.3">
<path opacity="0.3" d="M75.8004 79.2906C75.8198 81.8742 76.2863 84.4383 76.1502 87.0413C76.0336 89.1199 78.6769 89.1004 78.7935 87.0413C78.9296 84.4383 78.4631 81.8936 78.4437 79.2906C78.4243 77.2121 75.781 77.2121 75.8004 79.2906Z" fill="white"/>
</g>
<g opacity="0.5">
<path opacity="0.5" d="M44.1195 46.1896C38.9301 48.4429 36.8116 52.2114 38.5219 53.9403C40.2712 55.6886 42.9145 50.4049 46.2769 49.6473C49.4255 48.9285 54.5372 48.6177 54.887 47.0637C55.4701 44.4607 49.7171 43.7419 44.1195 46.1896Z" fill="#FDC00F"/>
<path opacity="0.5" d="M12.1863 44.7134C11.3117 45.7429 12.6722 47.1415 13.644 47.9963C14.4603 48.715 15.7237 49.628 16.4428 48.9093C17.1619 48.2099 15.9763 47.0638 15.3544 46.2285C14.7324 45.4127 12.9054 43.8781 12.1863 44.7134Z" fill="#FDC00F"/>
<path opacity="0.5" d="M34.3823 24.8216C33.1189 25.2878 33.6243 27.1721 34.0519 28.3959C34.4211 29.4254 35.082 30.8241 36.0538 30.5715C37.0256 30.2996 36.5397 28.7261 36.4036 27.6966C36.2676 26.667 35.4124 24.4331 34.3823 24.8216Z" fill="#FDC00F"/>
<path opacity="0.5" d="M65.0134 24.1223C63.925 23.3064 62.6228 24.7633 61.8259 25.7929C61.1651 26.6476 60.3293 27.9685 61.0873 28.6484C61.8453 29.3283 62.8949 28.0656 63.6918 27.3857C64.4886 26.7059 65.888 24.7827 65.0134 24.1223Z" fill="#FDC00F"/>
<path opacity="0.5" d="M88.0449 42.7319C87.248 41.6441 85.5765 42.6348 84.5075 43.373C83.6135 43.9946 82.4279 45.0047 82.9527 45.8789C83.4774 46.753 84.8574 45.8594 85.8097 45.4515C86.7621 45.0436 88.6862 43.6449 88.0449 42.7319Z" fill="#FDC00F"/>
</g>
</g>
<path d="M202.004 37.7756C201.538 29.8601 199.496 14.7425 193.369 12.8696C187.308 11.0189 184.556 15.1216 184.556 15.1216C184.556 15.1216 183.046 2.30071 175.166 0.405449C165.42 -1.93576 162.446 6.62637 162.446 6.62637C162.446 6.62637 159.471 -1.89116 149.726 0.427746C141.845 2.32301 140.335 15.1439 140.335 15.1439C140.335 15.1439 137.56 11.0189 131.522 12.8696C125.395 14.7425 123.353 29.8601 122.887 37.7756C122.354 46.4715 121 152.026 121 152.026H206C206 152.026 202.515 46.4715 202.004 37.7756Z" fill="#7BC145"/>
<path d="M163.844 32.2689C151.302 32.2689 139.758 41.879 146.351 48.5013C152.945 55.1235 156.852 46.5168 164.177 46.5168C171.103 46.5168 174.744 53.4735 180.671 49.5046C186.598 45.5357 178.029 32.2689 163.844 32.2689Z" fill="white"/>
<path d="M133.232 18.4669C129.835 18.7791 128.969 22.4358 129.413 26.1818C129.835 29.9054 131.966 32.4027 134.297 32.1574C136.628 31.9122 138.559 28.4338 138.337 24.4426C138.115 20.4514 135.984 18.2217 133.232 18.4669Z" fill="white"/>
<path d="M152.833 19.2919C155.164 19.0466 157.096 15.5683 156.874 11.5771C156.652 7.60816 154.543 5.35614 151.768 5.60141C148.371 5.91357 147.506 9.57031 147.95 13.3162C148.371 17.0622 150.502 19.5372 152.833 19.2919Z" fill="white"/>
<path d="M173.39 19.2919C175.721 19.0466 177.652 15.5683 177.43 11.5771C177.208 7.60816 175.099 5.35614 172.324 5.60141C168.928 5.91357 168.062 9.57031 168.506 13.3162C168.928 17.0622 171.037 19.5372 173.39 19.2919Z" fill="white"/>
<path d="M194.989 24.4202C194.767 20.4513 192.658 18.1993 189.884 18.4446C186.487 18.7567 185.621 22.4135 186.065 26.1594C186.487 29.883 188.618 32.3803 190.949 32.135C193.28 31.8898 195.211 28.4114 194.989 24.4202Z" fill="white"/>
<g opacity="0.4">
<path opacity="0.4" d="M155.053 36.483C149.126 39.0695 146.707 43.3951 148.66 45.3796C150.658 47.3863 153.677 41.3215 157.517 40.4519C161.114 39.6269 166.952 39.2702 167.352 37.4864C167.995 34.5209 161.447 33.6959 155.053 36.483Z" fill="white"/>
<path opacity="0.4" d="M132.765 20.5183C131.212 20.4292 130.901 22.6589 130.79 24.1305C130.701 25.3791 130.768 27.1629 131.9 27.319C133.054 27.4751 133.232 25.6021 133.565 24.4426C133.898 23.3278 134.009 20.5852 132.765 20.5183Z" fill="white"/>
<path opacity="0.4" d="M150.502 13.7622C151.657 13.9183 151.834 12.0453 152.167 10.8858C152.5 9.72639 152.611 7.00613 151.346 6.93924C149.792 6.85005 149.481 9.07977 149.37 10.5514C149.304 11.8 149.37 13.6061 150.502 13.7622Z" fill="white"/>
<path opacity="0.4" d="M172.013 7.18448C170.459 7.09529 170.149 9.32501 170.038 10.7966C169.949 12.0453 170.015 13.829 171.148 13.9851C172.302 14.1412 172.479 12.2682 172.812 11.1088C173.145 9.99393 173.256 7.25137 172.013 7.18448Z" fill="white"/>
<path opacity="0.4" d="M190.106 20.2061C188.552 20.1169 188.241 22.3466 188.13 23.8182C188.041 25.0669 188.108 26.8507 189.24 27.0067C190.394 27.1628 190.572 25.2898 190.905 24.1304C191.26 22.9932 191.371 20.273 190.106 20.2061Z" fill="white"/>
</g>
<defs>
<clipPath id="clip0_35_1353">
<rect width="102" height="142" fill="white" transform="translate(0 10)"/>
</clipPath>
</defs>
</svg>
